<svg width="256" height="256" viewBox="0 0 256 256" xmlns="http://www.w3.org/2000/svg">
  <defs>
    <linearGradient id="a" x1="-2.778%" y1="32.778%" x2="100%" y2="67.222%">
      <stop stop-color="#3C99D4" offset="0%"/>
      <stop stop-color="#2179BD" offset="100%"/>
    </linearGradient>
  </defs>
  <path fill="url(#a)" d="M254.67 42.67L196.64 5.06a12.8 12.8 0 00-13.33 0L99.7 58.94 65.6 36.73a10.67 10.67 0 00-12.94.53L1.9 92.1a10.67 10.67 0 000 16.74l38.66 30.4L1.9 170.27a10.67 10.67 0 000 16.74l50.75 54.84a10.67 10.67 0 0012.94.53l34.1-22.21 83.6 53.88a12.8 12.8 0 0013.33 0l58.03-37.6a12.8 12.8 0 006.27-11.04V53.7a12.8 12.8 0 00-6.27-11.03zM190.24 193.6L96 128l94.24-65.6v131.2z"/>
</svg>
